<svg width="120" height="120" viewBox="0 0 120 120" fill="none" xmlns="http://www.w3.org/2000/svg">
<rect width="120" height="120" fill="#111B24"/>
<g clip-path="url(#clip0_3616_1456)">
<path d="M83.952 63.2103H95.6C95.7379 63.2106 95.8746 63.1837 96.0021 63.131C96.1297 63.0784 96.2455 63.001 96.3431 62.9035C96.4407 62.8059 96.518 62.69 96.5707 62.5625C96.6233 62.435 96.6503 62.2983 96.65 62.1603V53.7603C96.65 53.4819 96.5393 53.2148 96.3424 53.0179C96.1455 52.821 95.8784 52.7103 95.6 52.7103H79.2783L66.4193 23.8307C66.3099 23.5849 66.132 23.3758 65.9069 23.2285C65.6818 23.0812 65.419 23.0019 65.15 23H54.65C54.3793 23.0001 54.1146 23.0786 53.8876 23.226C53.6607 23.3734 53.4813 23.5834 53.3713 23.8307L40.5216 52.7103H24.2C23.9215 52.7103 23.6544 52.821 23.4575 53.0179C23.2606 53.2148 23.15 53.4819 23.15 53.7603V62.1603C23.1497 62.2983 23.1766 62.435 23.2293 62.5625C23.2819 62.69 23.3593 62.8059 23.4568 62.9035C23.5544 63.001 23.6703 63.0784 23.7978 63.131C23.9253 63.1837 24.062 63.2106 24.2 63.2103H35.848L23.248 91.523C23.177 91.6825 23.1469 91.8572 23.1604 92.0312C23.1739 92.2053 23.2306 92.3732 23.3253 92.5198C23.42 92.6665 23.5498 92.7872 23.703 92.871C23.8561 92.9548 24.0277 92.9992 24.2023 93H33.5753C33.8459 92.9999 34.1107 92.9214 34.3376 92.774C34.5646 92.6266 34.7439 92.4166 34.854 92.1693L59.9 35.915L84.946 92.1693C85.056 92.4166 85.2353 92.6266 85.4623 92.774C85.6892 92.9214 85.954 92.9999 86.2246 93H95.5976C95.7728 93.0003 95.9453 92.9569 96.0993 92.8735C96.2534 92.7902 96.3842 92.6696 96.4797 92.5228C96.5753 92.376 96.6326 92.2076 96.6464 92.033C96.6603 91.8583 96.6302 91.683 96.559 91.523L83.952 63.2103Z" fill="white"/>
</g>
<defs>
<clipPath id="clip0_3616_1456">
<rect width="73.5" height="70" fill="white" transform="translate(23.15 23)"/>
</clipPath>
</defs>
</svg>
